<svg width="18" height="19" viewBox="0 0 18 19" fill="none" xmlns="http://www.w3.org/2000/svg">
<path d="M10.5 13.9993L10.4985 13.6243C10.3993 13.6246 10.3043 13.6643 10.2343 13.7346C10.1643 13.8049 10.125 13.9001 10.125 13.9993H10.5ZM10.5 13.9993L10.8353 14.168C10.8614 14.1159 10.875 14.0583 10.875 14L10.5 13.9993ZM7.5 14H7.125C7.12501 14.0583 7.13862 14.1159 7.16475 14.168L7.5 14ZM7.5 14L7.875 13.9993C7.875 13.9001 7.8357 13.8049 7.7657 13.7346C7.6957 13.6643 7.6007 13.6246 7.5015 13.6243L7.5 14ZM15.375 8.75C15.375 7.7045 15.375 6.89225 15.3098 6.24725C15.2438 5.59625 15.1073 5.075 14.8065 4.625L14.1825 5.042C14.3873 5.348 14.5035 5.732 14.5635 6.323C14.6243 6.9215 14.625 7.68875 14.625 8.75H15.375ZM14.8065 12.875C15.1065 12.425 15.2438 11.9038 15.3098 11.2528C15.3758 10.6078 15.375 9.7955 15.375 8.75H14.625C14.625 9.81125 14.625 10.5785 14.5635 11.177C14.5035 11.768 14.3873 12.152 14.1825 12.458L14.8065 12.875ZM13.875 13.8065C14.2437 13.5602 14.5602 13.2437 14.8065 12.875L14.1825 12.458C13.9913 12.7453 13.7453 12.9905 13.4588 13.1825L13.875 13.8065ZM10.5015 14.3743C11.3093 14.3705 11.9588 14.3548 12.4935 14.2813C13.0343 14.2063 13.482 14.069 13.875 13.8065L13.4588 13.1825C13.1903 13.3618 12.864 13.4728 12.3908 13.538C11.9123 13.604 11.3093 13.6205 10.4985 13.6243L10.5015 14.3743ZM10.0065 15.8263L10.8353 14.168L10.1648 13.832L9.33525 15.491L10.0065 15.8263ZM7.9935 15.8263C8.40825 16.655 9.591 16.655 10.0065 15.8263L9.33525 15.491C9.30408 15.5532 9.25621 15.6055 9.197 15.6421C9.13779 15.6786 9.06958 15.698 9 15.698C8.93042 15.698 8.86221 15.6786 8.80301 15.6421C8.7438 15.6055 8.69593 15.5532 8.66475 15.491L7.9935 15.8263ZM7.16475 14.168L7.9935 15.8263L8.66475 15.4902L7.83525 13.8328L7.16475 14.168ZM4.125 13.8065C4.518 14.069 4.965 14.2063 5.5065 14.2813C6.04125 14.3548 6.6915 14.3705 7.4985 14.3743L7.5015 13.6243C6.69075 13.6205 6.08775 13.6048 5.60925 13.538C5.13675 13.4728 4.80975 13.3618 4.542 13.1825L4.125 13.8065ZM3.1935 12.875C3.4398 13.2437 3.75633 13.5602 4.125 13.8065L4.542 13.1825C4.25524 12.9909 4.00905 12.7448 3.8175 12.458L3.1935 12.875ZM2.625 8.75C2.625 9.7955 2.625 10.6078 2.69025 11.2528C2.75625 11.9038 2.89275 12.425 3.1935 12.875L3.8175 12.458C3.61275 12.152 3.4965 11.768 3.4365 11.1763C3.375 10.5793 3.375 9.812 3.375 8.75H2.625ZM3.1935 4.625C2.8935 5.075 2.75625 5.59625 2.69025 6.24725C2.62425 6.89225 2.625 7.7045 2.625 8.75H3.375C3.375 7.68875 3.375 6.9215 3.4365 6.323C3.4965 5.732 3.61275 5.348 3.8175 5.042L3.1935 4.625ZM4.125 3.6935C3.75633 3.9398 3.4398 4.25633 3.1935 4.625L3.8175 5.042C4.00907 4.75526 4.25526 4.50907 4.542 4.3175L4.125 3.6935ZM8.25 3.125C7.2045 3.125 6.39225 3.125 5.74725 3.19025C5.09625 3.25625 4.575 3.39275 4.125 3.6935L4.542 4.3175C4.848 4.11275 5.232 3.9965 5.823 3.9365C6.4215 3.875 7.18875 3.875 8.25 3.875V3.125ZM9.75 3.125H8.25V3.875H9.75V3.125ZM13.875 3.6935C13.425 3.3935 12.9038 3.25625 12.2528 3.19025C11.6078 3.12425 10.7955 3.125 9.75 3.125V3.875C10.8113 3.875 11.5785 3.875 12.1763 3.9365C12.7688 3.9965 13.1513 4.11275 13.4588 4.3175L13.875 3.6935ZM14.8065 4.625C14.5602 4.25633 14.2437 3.9398 13.875 3.6935L13.4588 4.3175C13.7453 4.50875 13.9913 4.75475 14.1825 5.042L14.8065 4.625Z" fill="#494949" fill-opacity="0.6"/>
<path d="M12 9.5C12.4142 9.5 12.75 9.16421 12.75 8.75C12.75 8.33579 12.4142 8 12 8C11.5858 8 11.25 8.33579 11.25 8.75C11.25 9.16421 11.5858 9.5 12 9.5Z" fill="#494949" fill-opacity="0.6"/>
<path d="M9 9.5C9.41421 9.5 9.75 9.16421 9.75 8.75C9.75 8.33579 9.41421 8 9 8C8.58579 8 8.25 8.33579 8.25 8.75C8.25 9.16421 8.58579 9.5 9 9.5Z" fill="#494949" fill-opacity="0.6"/>
<path d="M6 9.5C6.41421 9.5 6.75 9.16421 6.75 8.75C6.75 8.33579 6.41421 8 6 8C5.58579 8 5.25 8.33579 5.25 8.75C5.25 9.16421 5.58579 9.5 6 9.5Z" fill="#494949" fill-opacity="0.6"/>
</svg>
