<svg width="18" height="19" viewBox="0 0 18 19" fill="none" xmlns="http://www.w3.org/2000/svg">
<path fill-rule="evenodd" clip-rule="evenodd" d="M9.81525 16.3281L10.2217 15.6411C10.5367 15.1086 10.6942 14.8416 10.9477 14.6946C11.2012 14.5469 11.52 14.5416 12.1575 14.5304C13.0995 14.5146 13.6897 14.4569 14.1847 14.2514C14.6397 14.0629 15.0531 13.7867 15.4013 13.4385C15.7496 13.0902 16.0258 12.6768 16.2142 12.2219C16.5 11.5334 16.5 10.6596 16.5 8.91211V8.16211C16.5 5.70736 16.5 4.47961 15.9472 3.57811C15.6382 3.07351 15.2142 2.6492 14.7097 2.33986C13.8075 1.78711 12.5797 1.78711 10.125 1.78711H7.875C5.42025 1.78711 4.1925 1.78711 3.291 2.33986C2.7864 2.64889 2.36209 3.07294 2.05275 3.57736C1.5 4.47961 1.5 5.70811 1.5 8.16211V8.91211C1.5 10.6596 1.5 11.5334 1.785 12.2219C1.97354 12.6769 2.24988 13.0903 2.59824 13.4386C2.94659 13.7868 3.36014 14.063 3.81525 14.2514C4.31025 14.4569 4.9005 14.5139 5.8425 14.5304C6.48 14.5416 6.79875 14.5469 7.05225 14.6946C7.305 14.8416 7.46325 15.1079 7.77825 15.6411L8.18475 16.3281C8.547 16.9401 9.45225 16.9401 9.81525 16.3281ZM12 9.28711C12.1989 9.28711 12.3897 9.20809 12.5303 9.06744C12.671 8.92679 12.75 8.73602 12.75 8.53711C12.75 8.3382 12.671 8.14743 12.5303 8.00678C12.3897 7.86613 12.1989 7.78711 12 7.78711C11.8011 7.78711 11.6103 7.86613 11.4697 8.00678C11.329 8.14743 11.25 8.3382 11.25 8.53711C11.25 8.73602 11.329 8.92679 11.4697 9.06744C11.6103 9.20809 11.8011 9.28711 12 9.28711ZM9.75 8.53711C9.75 8.73602 9.67098 8.92679 9.53033 9.06744C9.38968 9.20809 9.19891 9.28711 9 9.28711C8.80109 9.28711 8.61032 9.20809 8.46967 9.06744C8.32902 8.92679 8.25 8.73602 8.25 8.53711C8.25 8.3382 8.32902 8.14743 8.46967 8.00678C8.61032 7.86613 8.80109 7.78711 9 7.78711C9.19891 7.78711 9.38968 7.86613 9.53033 8.00678C9.67098 8.14743 9.75 8.3382 9.75 8.53711ZM6 9.28711C6.19891 9.28711 6.38968 9.20809 6.53033 9.06744C6.67098 8.92679 6.75 8.73602 6.75 8.53711C6.75 8.3382 6.67098 8.14743 6.53033 8.00678C6.38968 7.86613 6.19891 7.78711 6 7.78711C5.80109 7.78711 5.61032 7.86613 5.46967 8.00678C5.32902 8.14743 5.25 8.3382 5.25 8.53711C5.25 8.73602 5.32902 8.92679 5.46967 9.06744C5.61032 9.20809 5.80109 9.28711 6 9.28711Z" fill="#0054C2"/>
</svg>
