<svg width="17" height="17" viewBox="0 0 17 17" fill="none" xmlns="http://www.w3.org/2000/svg">
<path d="M8.90397 1.83301C5.22197 1.83301 2.2373 4.81767 2.2373 8.49967C2.2373 12.1817 5.22197 15.1663 8.90397 15.1663C12.586 15.1663 15.5706 12.1817 15.5706 8.49967C15.5706 4.81767 12.586 1.83301 8.90397 1.83301Z" fill="#0054C2"/>
<path d="M3.75146 12.7307C3.75146 12.7307 5.23746 10.8333 8.90413 10.8333C12.5708 10.8333 14.0575 12.7307 14.0575 12.7307M8.90413 8.5C9.43456 8.5 9.94327 8.28929 10.3183 7.91421C10.6934 7.53914 10.9041 7.03043 10.9041 6.5C10.9041 5.96957 10.6934 5.46086 10.3183 5.08579C9.94327 4.71071 9.43456 4.5 8.90413 4.5C8.3737 4.5 7.86499 4.71071 7.48992 5.08579C7.11485 5.46086 6.90413 5.96957 6.90413 6.5C6.90413 7.03043 7.11485 7.53914 7.48992 7.91421C7.86499 8.28929 8.3737 8.5 8.90413 8.5Z" stroke="white" stroke-linecap="round" stroke-linejoin="round"/>
</svg>
